<?xml version="1.0" encoding="utf-8"?>
<!-- Generator: Adobe Illustrator 26.3.1, SVG Export Plug-In . SVG Version: 6.00 Build 0)  -->
<svg version="1.1" id="Capa_1" xmlns="http://www.w3.org/2000/svg" xmlns:xlink="http://www.w3.org/1999/xlink" x="0px" y="0px"
	 viewBox="0 0 431.54 159.65" style="enable-background:new 0 0 431.54 159.65;" xml:space="preserve">
<style type="text/css">
	.st0{fill:#683C11;}
	.st1{fill:#E9AC46;}
	.st2{fill:#D44319;}
	.st3{font-family:'Lato-BoldItalic';}
	.st4{font-size:69.2205px;}
	.st5{font-family:'Lato-Regular';}
	.st6{font-family:'Lato-Italic';}
	.st7{font-size:50.6312px;}
</style>
<g>
	<g>
		<path d="M112.09,92.37c0,5.35,0.07,10.71-0.02,16.06c-0.18,10.62-4.54,19.19-13.12,25.42c-8.32,6.04-17.69,7.61-27.42,4.55
			c-12.39-3.9-19.68-12.64-22.04-25.42c-0.26-1.41-0.3-2.88-0.31-4.33c-0.02-11.38-0.02-22.75,0-34.13c0-0.89-0.2-1.29-1.17-1.47
			C40,71.6,34.33,67.09,31.32,59.55c-4.9-12.32,2.25-25.98,15.13-29.13c3.49-0.85,7-0.84,10.48,0.1c0.94,0.25,1.54,0.07,2.28-0.59
			c7.73-6.94,16.74-9.6,27-7.88c6.1,1.02,11.37,3.76,15.89,7.95c0.65,0.6,1.21,0.75,2.08,0.52c16.25-4.21,31.05,10.77,26.43,26.9
			c-2.49,8.71-8.45,13.92-17.36,15.64c-0.95,0.18-1.19,0.56-1.18,1.46C112.1,80.47,112.08,86.42,112.09,92.37
			C112.08,92.37,112.08,92.37,112.09,92.37z M53.16,37.39c-1.25,0.06-2.22,0.05-3.18,0.16c-7.92,0.86-13.61,8.25-12.43,16.13
			c1.01,6.74,6.97,12.07,13.57,12.07c19.48,0.01,38.97,0.02,58.45,0c10.01-0.01,16.75-9.67,13.35-19.09
			c-1.93-5.34-7.01-9-12.88-9.27c-5.35-0.25-10.92,3.26-13.23,8.26c-0.94,2.04-1.16,4.19-1.4,6.37c-0.23,2.13-1.98,3.5-4,3.37
			c-2.01-0.13-3.5-1.74-3.5-3.88c0-4.72,1.34-9.02,4.22-12.78c1.09-1.43,2.35-2.73,3.59-4.15c-0.34-0.28-0.69-0.62-1.08-0.89
			c-7.8-5.34-16.1-6.22-24.58-2.05c-7.92,3.89-12.27,10.51-13.19,19.33c-0.09,0.83-0.22,1.72-0.59,2.46
			c-0.77,1.53-2.55,2.21-4.18,1.79c-1.79-0.46-2.99-1.88-2.91-3.71c0.16-3.78,0.95-7.44,2.49-10.91
			C52.11,39.64,52.57,38.68,53.16,37.39z M80.6,90.01C80.6,90.01,80.6,90.01,80.6,90.01c-7.54-0.01-15.09,0-22.63-0.02
			c-0.87,0-1.25,0.16-1.24,1.15c0.04,5.69,0.02,11.37,0.03,17.06c0.01,3.54,0.69,6.95,2.22,10.15
			c4.93,10.37,15.89,15.69,27.11,13.19c9.88-2.2,17.72-11.15,18.22-21.24c0.32-6.42,0.13-12.85,0.2-19.28
			c0.01-0.89-0.4-1.01-1.16-1.01C95.77,90.02,88.18,90.01,80.6,90.01z M80.68,73.4c-7.54,0-15.08,0.02-22.62-0.02
			c-1.03-0.01-1.35,0.32-1.33,1.33c0.06,2.12,0.07,4.24,0,6.35c-0.04,1.05,0.34,1.34,1.34,1.33c4.83-0.04,9.66-0.02,14.49-0.03
			c10.25,0,20.51-0.01,30.76,0c0.82,0,1.22-0.16,1.19-1.1c-0.06-2.23-0.05-4.46-0.01-6.69c0.02-0.89-0.23-1.22-1.19-1.21
			C95.77,73.42,88.23,73.4,80.68,73.4z"/>
		<path class="st0" d="M112.09,92.37c0,5.35,0.07,10.71-0.02,16.06c-0.18,10.62-4.54,19.19-13.12,25.42
			c-8.32,6.04-17.69,7.61-27.42,4.55c-12.39-3.9-19.68-12.64-22.04-25.42c-0.26-1.41-0.3-2.88-0.31-4.33
			c-0.02-11.38-0.02-22.75,0-34.13c0-0.89-0.2-1.29-1.17-1.47C40,71.6,34.33,67.09,31.32,59.55c-4.9-12.32,2.25-25.98,15.13-29.13
			c3.49-0.85,7-0.84,10.48,0.1c0.94,0.25,1.54,0.07,2.28-0.59c7.73-6.94,16.74-9.6,27-7.88c6.1,1.02,11.37,3.76,15.89,7.95
			c0.65,0.6,1.21,0.75,2.08,0.52c16.25-4.21,31.05,10.77,26.43,26.9c-2.49,8.71-8.45,13.92-17.36,15.64
			c-0.95,0.18-1.19,0.56-1.18,1.46C112.1,80.47,112.08,86.42,112.09,92.37C112.08,92.37,112.08,92.37,112.09,92.37z M53.16,37.39
			c-1.25,0.06-2.22,0.05-3.18,0.16c-7.92,0.86-13.61,8.25-12.43,16.13c1.01,6.74,6.97,12.07,13.57,12.07
			c19.48,0.01,38.97,0.02,58.45,0c10.01-0.01,16.75-9.67,13.35-19.09c-1.93-5.34-7.01-9-12.88-9.27
			c-5.35-0.25-10.92,3.26-13.23,8.26c-0.94,2.04-1.16,4.19-1.4,6.37c-0.23,2.13-1.98,3.5-4,3.37c-2.01-0.13-3.5-1.74-3.5-3.88
			c0-4.72,1.34-9.02,4.22-12.78c1.09-1.43,2.35-2.73,3.59-4.15c-0.34-0.28-0.69-0.62-1.08-0.89c-7.8-5.34-16.1-6.22-24.58-2.05
			c-7.92,3.89-12.27,10.51-13.19,19.33c-0.09,0.83-0.22,1.72-0.59,2.46c-0.77,1.53-2.55,2.21-4.18,1.79
			c-1.79-0.46-2.99-1.88-2.91-3.71c0.16-3.78,0.95-7.44,2.49-10.91C52.11,39.64,52.57,38.68,53.16,37.39z M80.6,90.01
			C80.6,90.01,80.6,90.01,80.6,90.01c-7.54-0.01-15.09,0-22.63-0.02c-0.87,0-1.25,0.16-1.24,1.15c0.04,5.69,0.02,11.37,0.03,17.06
			c0.01,3.54,0.69,6.95,2.22,10.15c4.93,10.37,15.89,15.69,27.11,13.19c9.88-2.2,17.72-11.15,18.22-21.24
			c0.32-6.42,0.13-12.85,0.2-19.28c0.01-0.89-0.4-1.01-1.16-1.01C95.77,90.02,88.18,90.01,80.6,90.01z M80.68,73.4
			c-7.54,0-15.08,0.02-22.62-0.02c-1.03-0.01-1.35,0.32-1.33,1.33c0.06,2.12,0.07,4.24,0,6.35c-0.04,1.05,0.34,1.34,1.34,1.33
			c4.83-0.04,9.66-0.02,14.49-0.03c10.25,0,20.51-0.01,30.76,0c0.82,0,1.22-0.16,1.19-1.1c-0.06-2.23-0.05-4.46-0.01-6.69
			c0.02-0.89-0.23-1.22-1.19-1.21C95.77,73.42,88.23,73.4,80.68,73.4z"/>
		<g>
			<path class="st1" d="M112.09,92.37c0,5.35,0.07,10.71-0.02,16.06c-0.18,10.62-4.54,19.19-13.12,25.42
				c-8.32,6.04-17.69,7.61-27.42,4.55c-12.39-3.9-19.68-12.64-22.04-25.42c-0.26-1.41-0.3-2.88-0.31-4.33
				c-0.02-11.38-0.02-22.75,0-34.13c0-0.89-0.2-1.29-1.17-1.47C40,71.6,34.33,67.09,31.32,59.55c-4.9-12.32,2.25-25.98,15.13-29.13
				c3.49-0.85,7-0.84,10.48,0.1c0.94,0.25,1.54,0.07,2.28-0.59c7.73-6.94,16.74-9.6,27-7.88c6.1,1.02,11.37,3.76,15.89,7.95
				c0.65,0.6,1.21,0.75,2.08,0.52c16.25-4.21,31.05,10.77,26.43,26.9c-2.49,8.71-8.45,13.92-17.36,15.64
				c-0.95,0.18-1.19,0.56-1.18,1.46C112.1,80.47,112.08,86.42,112.09,92.37C112.08,92.37,112.08,92.37,112.09,92.37z M53.16,37.39
				c-1.25,0.06-2.22,0.05-3.18,0.16c-7.92,0.86-13.61,8.25-12.43,16.13c1.01,6.74,6.97,12.07,13.57,12.07
				c19.48,0.01,38.97,0.02,58.45,0c10.01-0.01,16.75-9.67,13.35-19.09c-1.93-5.34-7.01-9-12.88-9.27
				c-5.35-0.25-10.92,3.26-13.23,8.26c-0.94,2.04-1.16,4.19-1.4,6.37c-0.23,2.13-1.98,3.5-4,3.37c-2.01-0.13-3.5-1.74-3.5-3.88
				c0-4.72,1.34-9.02,4.22-12.78c1.09-1.43,2.35-2.73,3.59-4.15c-0.34-0.28-0.69-0.62-1.08-0.89c-7.8-5.34-16.1-6.22-24.58-2.05
				c-7.92,3.89-12.27,10.51-13.19,19.33c-0.09,0.83-0.22,1.72-0.59,2.46c-0.77,1.53-2.55,2.21-4.18,1.79
				c-1.79-0.46-2.99-1.88-2.91-3.71c0.16-3.78,0.95-7.44,2.49-10.91C52.11,39.64,52.57,38.68,53.16,37.39z M80.6,90.01
				C80.6,90.01,80.6,90.01,80.6,90.01c-7.54-0.01-15.09,0-22.63-0.02c-0.87,0-1.25,0.16-1.24,1.15c0.04,5.69,0.02,11.37,0.03,17.06
				c0.01,3.54,0.69,6.95,2.22,10.15c4.93,10.37,15.89,15.69,27.11,13.19c9.88-2.2,17.72-11.15,18.22-21.24
				c0.32-6.42,0.13-12.85,0.2-19.28c0.01-0.89-0.4-1.01-1.16-1.01C95.77,90.02,88.18,90.01,80.6,90.01z M80.68,73.4
				c-7.54,0-15.08,0.02-22.62-0.02c-1.03-0.01-1.35,0.32-1.33,1.33c0.06,2.12,0.07,4.24,0,6.35c-0.04,1.05,0.34,1.34,1.34,1.33
				c4.83-0.04,9.66-0.02,14.49-0.03c10.25,0,20.51-0.01,30.76,0c0.82,0,1.22-0.16,1.19-1.1c-0.06-2.23-0.05-4.46-0.01-6.69
				c0.02-0.89-0.23-1.22-1.19-1.21C95.77,73.42,88.23,73.4,80.68,73.4z"/>
		</g>
	</g>
	<path class="st2" d="M96.83,107.53c0.28,3.18-0.36,6.68-2.26,9.95c-3.78,6.48-12.01,9.56-19.1,7.08
		c-6.77-2.37-11.43-8.87-11.11-15.46c0.08-1.61,0.8-2.79,2.25-3.43c1.31-0.58,2.62-0.46,3.8,0.4c0.95,0.69,1.45,1.66,1.52,2.84
		c0.16,2.57,0.9,4.87,2.92,6.63c2.7,2.35,5.78,2.86,9.03,1.56c3.09-1.24,4.94-3.65,5.26-7c0.2-2.18,0.09-4.38,0.16-6.57
		c0.06-1.82,1.18-3.21,2.88-3.65c1.56-0.41,3.3,0.32,4.16,1.85c0.29,0.53,0.44,1.18,0.48,1.79
		C96.89,104.69,96.83,105.84,96.83,107.53z"/>
</g>
<text transform="matrix(1 0 0 1 158.9769 82.4011)"><tspan x="0" y="0" class="st2 st3 st4">Recetas</tspan><tspan x="225" y="0" class="st2 st5 st4"> </tspan></text>
<text transform="matrix(1 0 0 1 170.8631 127.0906)" class="st1 st6 st7">Saludables</text>
</svg>
